<mxfile host="app.diagrams.net" modified="2024-02-09T19:45:50.738Z" agent="Mozilla/5.0 (Windows NT 10.0; Win64; x64) AppleWebKit/537.36 (KHTML, like Gecko) Chrome/121.0.0.0 Safari/537.36" etag="52XiNXyyZws_CbbGdg-U" version="23.1.2" type="device" pages="2">
  <diagram name="Bitaxe 204" id="ONRjf1ZeobSsiGxjb4Aw">
    <mxGraphModel dx="819" dy="499" grid="0" gridSize="10" guides="1" tooltips="1" connect="1" arrows="1" fold="1" page="1" pageScale="1" pageWidth="850" pageHeight="1100" background="#000000" math="0" shadow="0">
      <root>
        <mxCell id="0" />
        <mxCell id="1" parent="0" />
        <mxCell id="7Wy0SERkZjZdVhMlLi0r-10" style="edgeStyle=orthogonalEdgeStyle;rounded=0;orthogonalLoop=1;jettySize=auto;html=1;exitX=1;exitY=0.5;exitDx=0;exitDy=0;endArrow=none;endFill=0;entryX=0;entryY=0.5;entryDx=0;entryDy=0;entryPerimeter=0;labelBackgroundColor=none;strokeColor=#FFFFFF;fontColor=default;fillColor=#f5f5f5;" parent="1" source="7Wy0SERkZjZdVhMlLi0r-1" target="7Wy0SERkZjZdVhMlLi0r-2" edge="1">
          <mxGeometry relative="1" as="geometry">
            <mxPoint x="205" y="151" as="targetPoint" />
          </mxGeometry>
        </mxCell>
        <mxCell id="7Wy0SERkZjZdVhMlLi0r-1" value="VIN&amp;nbsp;&amp;nbsp;&lt;br&gt;J1 (5V Barrel Jack)" style="rounded=0;whiteSpace=wrap;html=1;labelBackgroundColor=none;fillColor=#000000;strokeColor=#FFFFFF;fontColor=#FFFFFF;glass=0;" parent="1" vertex="1">
          <mxGeometry x="25" y="121" width="120" height="60" as="geometry" />
        </mxCell>
        <mxCell id="7Wy0SERkZjZdVhMlLi0r-2" value="" style="pointerEvents=1;verticalLabelPosition=bottom;shadow=0;dashed=0;align=center;html=1;verticalAlign=top;shape=mxgraph.electrical.resistors.resistor_2;rounded=0;labelBackgroundColor=none;fillColor=#f5f5f5;strokeColor=#FFFFFF;fontColor=#333333;" parent="1" vertex="1">
          <mxGeometry x="185" y="141" width="100" height="20" as="geometry" />
        </mxCell>
        <mxCell id="7Wy0SERkZjZdVhMlLi0r-3" value="" style="endArrow=none;dashed=1;html=1;dashPattern=1 3;strokeWidth=2;rounded=0;labelBackgroundColor=none;strokeColor=#FFFFFF;fontColor=default;fillColor=#f5f5f5;" parent="1" edge="1">
          <mxGeometry width="50" height="50" relative="1" as="geometry">
            <mxPoint x="185" y="181" as="sourcePoint" />
            <mxPoint x="185" y="121" as="targetPoint" />
          </mxGeometry>
        </mxCell>
        <mxCell id="7Wy0SERkZjZdVhMlLi0r-4" value="" style="endArrow=none;dashed=1;html=1;dashPattern=1 3;strokeWidth=2;rounded=0;labelBackgroundColor=none;strokeColor=#FFFFFF;fontColor=default;fillColor=#f5f5f5;" parent="1" edge="1">
          <mxGeometry width="50" height="50" relative="1" as="geometry">
            <mxPoint x="285" y="181" as="sourcePoint" />
            <mxPoint x="285" y="121" as="targetPoint" />
          </mxGeometry>
        </mxCell>
        <mxCell id="7Wy0SERkZjZdVhMlLi0r-5" value="" style="endArrow=none;dashed=1;html=1;dashPattern=1 3;strokeWidth=2;rounded=0;labelBackgroundColor=none;strokeColor=#FFFFFF;fontColor=default;fillColor=#f5f5f5;" parent="1" edge="1">
          <mxGeometry width="50" height="50" relative="1" as="geometry">
            <mxPoint x="185" y="121" as="sourcePoint" />
            <mxPoint x="285" y="121" as="targetPoint" />
          </mxGeometry>
        </mxCell>
        <mxCell id="7Wy0SERkZjZdVhMlLi0r-6" value="" style="endArrow=none;html=1;rounded=0;entryX=0.97;entryY=0.462;entryDx=0;entryDy=0;entryPerimeter=0;labelBackgroundColor=none;strokeColor=#FFFFFF;fontColor=default;fillColor=#f5f5f5;" parent="1" target="7Wy0SERkZjZdVhMlLi0r-2" edge="1">
          <mxGeometry width="50" height="50" relative="1" as="geometry">
            <mxPoint x="275" y="191" as="sourcePoint" />
            <mxPoint x="285" y="191" as="targetPoint" />
          </mxGeometry>
        </mxCell>
        <mxCell id="7Wy0SERkZjZdVhMlLi0r-7" value="" style="endArrow=none;html=1;rounded=0;entryX=0.028;entryY=0.404;entryDx=0;entryDy=0;entryPerimeter=0;labelBackgroundColor=none;strokeColor=#FFFFFF;fontColor=default;fillColor=#f5f5f5;" parent="1" target="7Wy0SERkZjZdVhMlLi0r-2" edge="1">
          <mxGeometry width="50" height="50" relative="1" as="geometry">
            <mxPoint x="195" y="191" as="sourcePoint" />
            <mxPoint x="292" y="160" as="targetPoint" />
          </mxGeometry>
        </mxCell>
        <mxCell id="Lr5nhhllC1a0luXDhCsq-15" value="" style="edgeStyle=orthogonalEdgeStyle;orthogonalLoop=1;jettySize=auto;html=1;" edge="1" parent="1" source="7Wy0SERkZjZdVhMlLi0r-8" target="7Wy0SERkZjZdVhMlLi0r-42">
          <mxGeometry relative="1" as="geometry" />
        </mxCell>
        <mxCell id="7Wy0SERkZjZdVhMlLi0r-8" value="Current Measurement" style="text;html=1;align=center;verticalAlign=middle;resizable=0;points=[];autosize=1;strokeColor=none;fillColor=none;rounded=0;labelBackgroundColor=none;fontColor=#FFFFFF;" parent="1" vertex="1">
          <mxGeometry x="165" y="181" width="140" height="30" as="geometry" />
        </mxCell>
        <mxCell id="7Wy0SERkZjZdVhMlLi0r-9" value="" style="endArrow=none;dashed=1;html=1;dashPattern=1 3;strokeWidth=2;rounded=0;entryX=0.86;entryY=-0.026;entryDx=0;entryDy=0;entryPerimeter=0;exitX=0.143;exitY=-0.026;exitDx=0;exitDy=0;exitPerimeter=0;labelBackgroundColor=none;strokeColor=#FFFFFF;fontColor=default;fillColor=#f5f5f5;" parent="1" source="7Wy0SERkZjZdVhMlLi0r-8" target="7Wy0SERkZjZdVhMlLi0r-8" edge="1">
          <mxGeometry width="50" height="50" relative="1" as="geometry">
            <mxPoint x="145" y="271" as="sourcePoint" />
            <mxPoint x="195" y="221" as="targetPoint" />
          </mxGeometry>
        </mxCell>
        <mxCell id="7Wy0SERkZjZdVhMlLi0r-25" style="edgeStyle=orthogonalEdgeStyle;rounded=0;orthogonalLoop=1;jettySize=auto;html=1;exitX=1;exitY=0.5;exitDx=0;exitDy=0;entryX=0;entryY=0.5;entryDx=0;entryDy=0;endArrow=none;endFill=0;labelBackgroundColor=none;strokeColor=#FFFFFF;fontColor=default;fillColor=#f5f5f5;" parent="1" source="7Wy0SERkZjZdVhMlLi0r-11" target="7Wy0SERkZjZdVhMlLi0r-18" edge="1">
          <mxGeometry relative="1" as="geometry">
            <Array as="points">
              <mxPoint x="535" y="151" />
              <mxPoint x="535" y="151" />
            </Array>
          </mxGeometry>
        </mxCell>
        <mxCell id="7Wy0SERkZjZdVhMlLi0r-11" value="VDD Buck Converter U9 (~1.2V, TPS40305)" style="rounded=0;whiteSpace=wrap;html=1;fillColor=#6d8764;strokeColor=#FFFFFF;labelBackgroundColor=none;fontColor=#FFFFFF;" parent="1" vertex="1">
          <mxGeometry x="365" y="121" width="130" height="60" as="geometry" />
        </mxCell>
        <mxCell id="7Wy0SERkZjZdVhMlLi0r-12" value="" style="endArrow=none;html=1;rounded=0;entryX=0;entryY=0.5;entryDx=0;entryDy=0;labelBackgroundColor=none;strokeColor=#FFFFFF;fontColor=default;fillColor=#f5f5f5;" parent="1" target="7Wy0SERkZjZdVhMlLi0r-11" edge="1">
          <mxGeometry width="50" height="50" relative="1" as="geometry">
            <mxPoint x="285" y="151" as="sourcePoint" />
            <mxPoint x="405" y="241" as="targetPoint" />
          </mxGeometry>
        </mxCell>
        <mxCell id="7Wy0SERkZjZdVhMlLi0r-15" value="" style="endArrow=none;html=1;rounded=0;labelBackgroundColor=none;strokeColor=#FFFFFF;fontColor=default;fillColor=#f5f5f5;" parent="1" edge="1">
          <mxGeometry width="50" height="50" relative="1" as="geometry">
            <mxPoint x="315" y="131" as="sourcePoint" />
            <mxPoint x="315" y="151" as="targetPoint" />
            <Array as="points">
              <mxPoint x="315" y="141" />
            </Array>
          </mxGeometry>
        </mxCell>
        <mxCell id="7Wy0SERkZjZdVhMlLi0r-16" value="" style="endArrow=none;html=1;rounded=0;labelBackgroundColor=none;strokeColor=#FFFFFF;fontColor=default;fillColor=#f5f5f5;" parent="1" edge="1">
          <mxGeometry width="50" height="50" relative="1" as="geometry">
            <mxPoint x="325" y="131" as="sourcePoint" />
            <mxPoint x="305" y="131" as="targetPoint" />
          </mxGeometry>
        </mxCell>
        <mxCell id="7Wy0SERkZjZdVhMlLi0r-17" value="5V" style="text;html=1;align=center;verticalAlign=middle;resizable=0;points=[];autosize=1;strokeColor=none;fillColor=none;rounded=0;labelBackgroundColor=none;fontColor=#FFFFFF;" parent="1" vertex="1">
          <mxGeometry x="295" y="111" width="40" height="30" as="geometry" />
        </mxCell>
        <mxCell id="7Wy0SERkZjZdVhMlLi0r-18" value="Bitcoin ASIC&lt;br&gt;U14 (BM1366)" style="rounded=0;whiteSpace=wrap;html=1;labelBackgroundColor=none;fillColor=#000000;strokeColor=#FFFFFF;fontColor=#FFFFFF;glass=0;" parent="1" vertex="1">
          <mxGeometry x="585" y="121" width="120" height="60" as="geometry" />
        </mxCell>
        <mxCell id="7Wy0SERkZjZdVhMlLi0r-19" value="USB C Receptacle&amp;nbsp;&amp;nbsp;&lt;br&gt;J8" style="rounded=0;whiteSpace=wrap;html=1;labelBackgroundColor=none;fillColor=#000000;strokeColor=#FFFFFF;fontColor=#FFFFFF;glass=0;" parent="1" vertex="1">
          <mxGeometry x="25" y="216" width="120" height="60" as="geometry" />
        </mxCell>
        <mxCell id="7Wy0SERkZjZdVhMlLi0r-23" style="edgeStyle=orthogonalEdgeStyle;rounded=0;orthogonalLoop=1;jettySize=auto;html=1;exitX=1;exitY=0.5;exitDx=0;exitDy=0;exitPerimeter=0;endArrow=none;endFill=0;labelBackgroundColor=none;strokeColor=#FFFFFF;fontColor=default;fillColor=#f5f5f5;" parent="1" source="7Wy0SERkZjZdVhMlLi0r-20" edge="1">
          <mxGeometry relative="1" as="geometry">
            <mxPoint x="304" y="245" as="targetPoint" />
            <Array as="points">
              <mxPoint x="303" y="246" />
              <mxPoint x="303" y="245" />
            </Array>
          </mxGeometry>
        </mxCell>
        <mxCell id="7Wy0SERkZjZdVhMlLi0r-20" value="" style="pointerEvents=1;fillColor=#f5f5f5;verticalLabelPosition=bottom;shadow=0;dashed=0;align=center;html=1;verticalAlign=top;shape=mxgraph.electrical.diodes.schottky_diode;rounded=0;labelBackgroundColor=none;strokeColor=#FFFFFF;fontColor=#333333;" parent="1" vertex="1">
          <mxGeometry x="210" y="231" width="50" height="30" as="geometry" />
        </mxCell>
        <mxCell id="7Wy0SERkZjZdVhMlLi0r-22" style="edgeStyle=orthogonalEdgeStyle;rounded=0;orthogonalLoop=1;jettySize=auto;html=1;exitX=1;exitY=0.5;exitDx=0;exitDy=0;entryX=0;entryY=0.5;entryDx=0;entryDy=0;entryPerimeter=0;endArrow=none;endFill=0;labelBackgroundColor=none;strokeColor=#FFFFFF;fontColor=default;fillColor=#f5f5f5;" parent="1" source="7Wy0SERkZjZdVhMlLi0r-19" target="7Wy0SERkZjZdVhMlLi0r-20" edge="1">
          <mxGeometry relative="1" as="geometry" />
        </mxCell>
        <mxCell id="7Wy0SERkZjZdVhMlLi0r-24" value="" style="endArrow=none;html=1;rounded=0;labelBackgroundColor=none;strokeColor=#FFFFFF;fontColor=default;fillColor=#f5f5f5;" parent="1" edge="1">
          <mxGeometry width="50" height="50" relative="1" as="geometry">
            <mxPoint x="304" y="245" as="sourcePoint" />
            <mxPoint x="303" y="151" as="targetPoint" />
          </mxGeometry>
        </mxCell>
        <mxCell id="7Wy0SERkZjZdVhMlLi0r-27" value="" style="endArrow=none;html=1;rounded=0;labelBackgroundColor=none;strokeColor=#FFFFFF;fontColor=default;fillColor=#f5f5f5;" parent="1" edge="1">
          <mxGeometry width="50" height="50" relative="1" as="geometry">
            <mxPoint x="555" y="131" as="sourcePoint" />
            <mxPoint x="535" y="131" as="targetPoint" />
          </mxGeometry>
        </mxCell>
        <mxCell id="7Wy0SERkZjZdVhMlLi0r-28" value="VDD" style="text;html=1;align=center;verticalAlign=middle;resizable=0;points=[];autosize=1;strokeColor=none;fillColor=none;rounded=0;labelBackgroundColor=none;fontColor=#FFFFFF;" parent="1" vertex="1">
          <mxGeometry x="520" y="111" width="50" height="30" as="geometry" />
        </mxCell>
        <mxCell id="7Wy0SERkZjZdVhMlLi0r-30" value="" style="endArrow=none;html=1;rounded=0;labelBackgroundColor=none;strokeColor=#FFFFFF;fontColor=default;fillColor=#f5f5f5;" parent="1" edge="1">
          <mxGeometry width="50" height="50" relative="1" as="geometry">
            <mxPoint x="545" y="131" as="sourcePoint" />
            <mxPoint x="545" y="151" as="targetPoint" />
          </mxGeometry>
        </mxCell>
        <mxCell id="7Wy0SERkZjZdVhMlLi0r-32" style="edgeStyle=orthogonalEdgeStyle;rounded=0;orthogonalLoop=1;jettySize=auto;html=1;exitX=0;exitY=0.5;exitDx=0;exitDy=0;endArrow=none;endFill=0;labelBackgroundColor=none;strokeColor=#FFFFFF;fontColor=default;fillColor=#f5f5f5;" parent="1" source="7Wy0SERkZjZdVhMlLi0r-31" edge="1">
          <mxGeometry relative="1" as="geometry">
            <mxPoint x="355" y="151" as="targetPoint" />
            <Array as="points">
              <mxPoint x="375" y="546" />
              <mxPoint x="328" y="546" />
              <mxPoint x="328" y="151" />
            </Array>
          </mxGeometry>
        </mxCell>
        <mxCell id="7Wy0SERkZjZdVhMlLi0r-31" value="3V3 Regulator&lt;br&gt;U11 (RT9080-33GJ5)" style="rounded=0;whiteSpace=wrap;html=1;fillColor=#6d8764;strokeColor=#FFFFFF;labelBackgroundColor=none;fontColor=#ffffff;" parent="1" vertex="1">
          <mxGeometry x="395" y="517" width="130" height="60" as="geometry" />
        </mxCell>
        <mxCell id="7Wy0SERkZjZdVhMlLi0r-33" value="Microcontroller&lt;br&gt;U12 (ESP32-S3)" style="rounded=0;whiteSpace=wrap;html=1;labelBackgroundColor=none;fillColor=#000000;strokeColor=#FFFFFF;fontColor=#FFFFFF;glass=0;" parent="1" vertex="1">
          <mxGeometry x="642" y="517" width="120" height="60" as="geometry" />
        </mxCell>
        <mxCell id="7Wy0SERkZjZdVhMlLi0r-34" style="edgeStyle=orthogonalEdgeStyle;rounded=0;orthogonalLoop=1;jettySize=auto;html=1;exitX=1;exitY=0.5;exitDx=0;exitDy=0;entryX=0;entryY=0.5;entryDx=0;entryDy=0;endArrow=none;endFill=0;labelBackgroundColor=none;strokeColor=#FFFFFF;fontColor=default;fillColor=#f5f5f5;" parent="1" source="7Wy0SERkZjZdVhMlLi0r-31" target="7Wy0SERkZjZdVhMlLi0r-33" edge="1">
          <mxGeometry relative="1" as="geometry" />
        </mxCell>
        <mxCell id="7Wy0SERkZjZdVhMlLi0r-35" value="" style="endArrow=none;html=1;rounded=0;labelBackgroundColor=none;strokeColor=#FFFFFF;fontColor=default;fillColor=#f5f5f5;" parent="1" edge="1">
          <mxGeometry width="50" height="50" relative="1" as="geometry">
            <mxPoint x="555" y="526" as="sourcePoint" />
            <mxPoint x="535" y="526" as="targetPoint" />
          </mxGeometry>
        </mxCell>
        <mxCell id="7Wy0SERkZjZdVhMlLi0r-36" value="3V3" style="text;html=1;align=center;verticalAlign=middle;resizable=0;points=[];autosize=1;strokeColor=none;fillColor=none;rounded=0;labelBackgroundColor=none;fontColor=#FFFFFF;" parent="1" vertex="1">
          <mxGeometry x="525" y="506" width="40" height="30" as="geometry" />
        </mxCell>
        <mxCell id="7Wy0SERkZjZdVhMlLi0r-37" value="" style="endArrow=none;html=1;rounded=0;labelBackgroundColor=none;strokeColor=#FFFFFF;fontColor=default;fillColor=#f5f5f5;" parent="1" edge="1">
          <mxGeometry width="50" height="50" relative="1" as="geometry">
            <mxPoint x="545" y="526" as="sourcePoint" />
            <mxPoint x="545" y="546" as="targetPoint" />
          </mxGeometry>
        </mxCell>
        <mxCell id="Lr5nhhllC1a0luXDhCsq-17" style="edgeStyle=orthogonalEdgeStyle;orthogonalLoop=1;jettySize=auto;html=1;exitX=0;exitY=0.5;exitDx=0;exitDy=0;strokeColor=#FFFFFF;endArrow=none;endFill=0;" edge="1" parent="1" source="7Wy0SERkZjZdVhMlLi0r-41">
          <mxGeometry relative="1" as="geometry">
            <mxPoint x="328" y="311" as="targetPoint" />
          </mxGeometry>
        </mxCell>
        <mxCell id="7Wy0SERkZjZdVhMlLi0r-41" value="1V8 Regulator&lt;br&gt;U5 (MCP1824T-1802E)" style="rounded=0;whiteSpace=wrap;html=1;fillColor=#6d8764;strokeColor=#FFFFFF;labelBackgroundColor=none;fontColor=#ffffff;" parent="1" vertex="1">
          <mxGeometry x="365" y="281" width="130" height="60" as="geometry" />
        </mxCell>
        <mxCell id="7Wy0SERkZjZdVhMlLi0r-43" style="edgeStyle=orthogonalEdgeStyle;rounded=0;orthogonalLoop=1;jettySize=auto;html=1;exitX=1;exitY=0.5;exitDx=0;exitDy=0;entryX=0.25;entryY=1;entryDx=0;entryDy=0;endArrow=none;endFill=0;labelBackgroundColor=none;strokeColor=#FFFFFF;fontColor=default;fillColor=#f5f5f5;" parent="1" source="7Wy0SERkZjZdVhMlLi0r-42" target="7Wy0SERkZjZdVhMlLi0r-18" edge="1">
          <mxGeometry relative="1" as="geometry" />
        </mxCell>
        <mxCell id="Lr5nhhllC1a0luXDhCsq-16" style="edgeStyle=orthogonalEdgeStyle;orthogonalLoop=1;jettySize=auto;html=1;exitX=0;exitY=0.5;exitDx=0;exitDy=0;strokeColor=#FFFFFF;endArrow=none;endFill=0;" edge="1" parent="1" source="7Wy0SERkZjZdVhMlLi0r-42">
          <mxGeometry relative="1" as="geometry">
            <mxPoint x="327.33333333333337" y="231" as="targetPoint" />
          </mxGeometry>
        </mxCell>
        <mxCell id="7Wy0SERkZjZdVhMlLi0r-42" value="0V8 Regulator&lt;br&gt;U6 (MCP1824T-0802E)" style="rounded=0;whiteSpace=wrap;html=1;fillColor=#6d8764;strokeColor=#FFFFFF;labelBackgroundColor=none;fontColor=#ffffff;" parent="1" vertex="1">
          <mxGeometry x="365" y="201" width="130" height="60" as="geometry" />
        </mxCell>
        <mxCell id="7Wy0SERkZjZdVhMlLi0r-44" value="" style="endArrow=none;html=1;rounded=0;labelBackgroundColor=none;strokeColor=#FFFFFF;fontColor=default;fillColor=#f5f5f5;" parent="1" edge="1">
          <mxGeometry width="50" height="50" relative="1" as="geometry">
            <mxPoint x="555" y="211" as="sourcePoint" />
            <mxPoint x="535" y="211" as="targetPoint" />
          </mxGeometry>
        </mxCell>
        <mxCell id="7Wy0SERkZjZdVhMlLi0r-45" value="" style="endArrow=none;html=1;rounded=0;labelBackgroundColor=none;strokeColor=#FFFFFF;fontColor=default;fillColor=#f5f5f5;" parent="1" edge="1">
          <mxGeometry width="50" height="50" relative="1" as="geometry">
            <mxPoint x="545" y="211" as="sourcePoint" />
            <mxPoint x="545" y="231" as="targetPoint" />
          </mxGeometry>
        </mxCell>
        <mxCell id="7Wy0SERkZjZdVhMlLi0r-46" value="0V8" style="text;html=1;align=center;verticalAlign=middle;resizable=0;points=[];autosize=1;strokeColor=none;fillColor=none;rounded=0;labelBackgroundColor=none;fontColor=#FFFFFF;" parent="1" vertex="1">
          <mxGeometry x="525" y="191" width="40" height="30" as="geometry" />
        </mxCell>
        <mxCell id="7Wy0SERkZjZdVhMlLi0r-47" style="edgeStyle=orthogonalEdgeStyle;rounded=0;orthogonalLoop=1;jettySize=auto;html=1;endArrow=none;endFill=0;labelBackgroundColor=none;strokeColor=#FFFFFF;fontColor=default;fillColor=#f5f5f5;" parent="1" edge="1">
          <mxGeometry relative="1" as="geometry">
            <mxPoint x="495" y="310" as="sourcePoint" />
            <mxPoint x="675" y="181" as="targetPoint" />
            <Array as="points">
              <mxPoint x="495" y="311" />
              <mxPoint x="675" y="311" />
            </Array>
          </mxGeometry>
        </mxCell>
        <mxCell id="7Wy0SERkZjZdVhMlLi0r-48" value="" style="endArrow=none;html=1;rounded=0;labelBackgroundColor=none;strokeColor=#FFFFFF;fontColor=default;fillColor=#f5f5f5;" parent="1" edge="1">
          <mxGeometry width="50" height="50" relative="1" as="geometry">
            <mxPoint x="555" y="291" as="sourcePoint" />
            <mxPoint x="535" y="291" as="targetPoint" />
          </mxGeometry>
        </mxCell>
        <mxCell id="7Wy0SERkZjZdVhMlLi0r-49" value="" style="endArrow=none;html=1;rounded=0;labelBackgroundColor=none;strokeColor=#FFFFFF;fontColor=default;fillColor=#f5f5f5;" parent="1" edge="1">
          <mxGeometry width="50" height="50" relative="1" as="geometry">
            <mxPoint x="545" y="291" as="sourcePoint" />
            <mxPoint x="545" y="311" as="targetPoint" />
            <Array as="points">
              <mxPoint x="545" y="311" />
            </Array>
          </mxGeometry>
        </mxCell>
        <mxCell id="7Wy0SERkZjZdVhMlLi0r-50" value="1V8" style="text;html=1;align=center;verticalAlign=middle;resizable=0;points=[];autosize=1;strokeColor=none;fillColor=none;rounded=0;labelBackgroundColor=none;fontColor=#FFFFFF;" parent="1" vertex="1">
          <mxGeometry x="525" y="271" width="40" height="30" as="geometry" />
        </mxCell>
        <mxCell id="7Wy0SERkZjZdVhMlLi0r-51" value="Fan&lt;br&gt;J4 (Off-board)" style="rounded=0;whiteSpace=wrap;html=1;labelBackgroundColor=none;fillColor=#000000;strokeColor=#FFFFFF;fontColor=#FFFFFF;glass=0;" parent="1" vertex="1">
          <mxGeometry x="587" y="756" width="120" height="60" as="geometry" />
        </mxCell>
        <mxCell id="7Wy0SERkZjZdVhMlLi0r-52" value="" style="endArrow=none;html=1;rounded=0;exitX=0;exitY=0.5;exitDx=0;exitDy=0;labelBackgroundColor=none;strokeColor=#FFFFFF;fontColor=default;fillColor=#f5f5f5;" parent="1" source="7Wy0SERkZjZdVhMlLi0r-51" edge="1">
          <mxGeometry width="50" height="50" relative="1" as="geometry">
            <mxPoint x="570" y="786" as="sourcePoint" />
            <mxPoint x="328" y="546" as="targetPoint" />
            <Array as="points">
              <mxPoint x="328" y="786" />
            </Array>
          </mxGeometry>
        </mxCell>
        <mxCell id="7Wy0SERkZjZdVhMlLi0r-54" style="edgeStyle=orthogonalEdgeStyle;rounded=0;orthogonalLoop=1;jettySize=auto;html=1;exitX=0;exitY=0.5;exitDx=0;exitDy=0;endArrow=none;endFill=0;labelBackgroundColor=none;strokeColor=#FFFFFF;fontColor=default;fillColor=#f5f5f5;" parent="1" edge="1">
          <mxGeometry relative="1" as="geometry">
            <mxPoint x="571" y="547" as="targetPoint" />
            <mxPoint x="644" y="628" as="sourcePoint" />
            <Array as="points">
              <mxPoint x="570" y="627" />
              <mxPoint x="570" y="547" />
            </Array>
          </mxGeometry>
        </mxCell>
        <mxCell id="7Wy0SERkZjZdVhMlLi0r-53" value="Fan Control &lt;br&gt;U7 (EMC2101)" style="rounded=0;whiteSpace=wrap;html=1;labelBackgroundColor=none;fillColor=#000000;strokeColor=#FFFFFF;fontColor=#FFFFFF;glass=0;" parent="1" vertex="1">
          <mxGeometry x="642" y="597" width="120" height="60" as="geometry" />
        </mxCell>
        <mxCell id="Lr5nhhllC1a0luXDhCsq-6" style="edgeStyle=orthogonalEdgeStyle;orthogonalLoop=1;jettySize=auto;html=1;exitX=0;exitY=0.5;exitDx=0;exitDy=0;entryX=1;entryY=0.5;entryDx=0;entryDy=0;strokeColor=#FFFFFF;rounded=0;curved=0;endArrow=none;endFill=0;" edge="1" parent="1" source="7Wy0SERkZjZdVhMlLi0r-55" target="7Wy0SERkZjZdVhMlLi0r-41">
          <mxGeometry relative="1" as="geometry">
            <Array as="points">
              <mxPoint x="705" y="311" />
            </Array>
          </mxGeometry>
        </mxCell>
        <mxCell id="7Wy0SERkZjZdVhMlLi0r-55" value="25 MHz Oscillator&lt;br&gt;U1" style="rounded=0;whiteSpace=wrap;html=1;labelBackgroundColor=none;fillColor=#000000;strokeColor=#FFFFFF;fontColor=#FFFFFF;glass=0;" parent="1" vertex="1">
          <mxGeometry x="705" y="271" width="120" height="60" as="geometry" />
        </mxCell>
        <mxCell id="NW6FwXzq0pNj0Oopr2sa-1" style="edgeStyle=orthogonalEdgeStyle;orthogonalLoop=1;jettySize=auto;html=1;exitX=0;exitY=0.5;exitDx=0;exitDy=0;strokeColor=#FFFFFF;fontColor=#FFFFFF;rounded=0;curved=0;endArrow=none;endFill=0;" parent="1" edge="1">
          <mxGeometry relative="1" as="geometry">
            <mxPoint x="570" y="627" as="targetPoint" />
            <Array as="points">
              <mxPoint x="570" y="706.8" />
            </Array>
            <mxPoint x="644" y="707.8" as="sourcePoint" />
          </mxGeometry>
        </mxCell>
        <mxCell id="7Wy0SERkZjZdVhMlLi0r-57" value="VDD Control&lt;br&gt;U10 (DS4432U)" style="rounded=0;whiteSpace=wrap;html=1;labelBackgroundColor=none;fillColor=#000000;strokeColor=#FFFFFF;fontColor=#FFFFFF;glass=0;" parent="1" vertex="1">
          <mxGeometry x="642" y="677" width="120" height="60" as="geometry" />
        </mxCell>
        <mxCell id="7Wy0SERkZjZdVhMlLi0r-59" value="" style="rounded=0;whiteSpace=wrap;html=1;fillColor=#6d8764;strokeColor=#3A5431;labelBackgroundColor=none;fontColor=#ffffff;" parent="1" vertex="1">
          <mxGeometry x="25" y="481" width="20" height="20" as="geometry" />
        </mxCell>
        <mxCell id="7Wy0SERkZjZdVhMlLi0r-60" value="Power Conversion Devices" style="text;html=1;align=center;verticalAlign=middle;resizable=0;points=[];autosize=1;strokeColor=none;fillColor=none;rounded=0;labelBackgroundColor=none;fontColor=#FFFFFF;" parent="1" vertex="1">
          <mxGeometry x="45" y="476" width="170" height="30" as="geometry" />
        </mxCell>
        <mxCell id="mXKNEcdYAx9XwZtAgW0s-4" style="edgeStyle=orthogonalEdgeStyle;rounded=0;orthogonalLoop=1;jettySize=auto;html=1;exitX=0;exitY=0.5;exitDx=0;exitDy=0;strokeColor=#FFFFFF;endArrow=none;endFill=0;" edge="1" parent="1" source="mXKNEcdYAx9XwZtAgW0s-1">
          <mxGeometry relative="1" as="geometry">
            <mxPoint x="569" y="546" as="targetPoint" />
            <mxPoint x="589" y="469" as="sourcePoint" />
            <Array as="points">
              <mxPoint x="570" y="469" />
              <mxPoint x="570" y="546" />
            </Array>
          </mxGeometry>
        </mxCell>
        <mxCell id="mXKNEcdYAx9XwZtAgW0s-1" value="Current Measurement&lt;br&gt;U8 (INA260)" style="rounded=0;whiteSpace=wrap;html=1;labelBackgroundColor=none;fillColor=#000000;strokeColor=#FFFFFF;fontColor=#FFFFFF;glass=0;" vertex="1" parent="1">
          <mxGeometry x="642" y="439" width="120" height="60" as="geometry" />
        </mxCell>
        <mxCell id="mXKNEcdYAx9XwZtAgW0s-5" style="edgeStyle=orthogonalEdgeStyle;rounded=0;orthogonalLoop=1;jettySize=auto;html=1;exitX=0;exitY=0.5;exitDx=0;exitDy=0;strokeColor=#FFFFFF;endArrow=none;endFill=0;" edge="1" parent="1" source="mXKNEcdYAx9XwZtAgW0s-2">
          <mxGeometry relative="1" as="geometry">
            <mxPoint x="570" y="469" as="targetPoint" />
          </mxGeometry>
        </mxCell>
        <mxCell id="mXKNEcdYAx9XwZtAgW0s-2" value="OLED Display&lt;br&gt;J9 &lt;br&gt;(SSD1306, Off-Board)" style="rounded=0;whiteSpace=wrap;html=1;labelBackgroundColor=none;fillColor=#000000;strokeColor=#FFFFFF;fontColor=#FFFFFF;glass=0;" vertex="1" parent="1">
          <mxGeometry x="642" y="368" width="120" height="60" as="geometry" />
        </mxCell>
        <mxCell id="Lr5nhhllC1a0luXDhCsq-1" value="&lt;font color=&quot;#ffffff&quot;&gt;250mA&lt;/font&gt;" style="text;html=1;align=center;verticalAlign=middle;resizable=0;points=[];autosize=1;strokeColor=none;fillColor=none;rounded=0;" vertex="1" parent="1">
          <mxGeometry x="535" y="764" width="56" height="26" as="geometry" />
        </mxCell>
        <mxCell id="Lr5nhhllC1a0luXDhCsq-2" value="&lt;font color=&quot;#ffffff&quot;&gt;500mA&lt;/font&gt;" style="text;html=1;align=center;verticalAlign=middle;resizable=0;points=[];autosize=1;strokeColor=none;fillColor=none;rounded=0;" vertex="1" parent="1">
          <mxGeometry x="581" y="524" width="56" height="26" as="geometry" />
        </mxCell>
        <mxCell id="Lr5nhhllC1a0luXDhCsq-4" value="&lt;font color=&quot;#ffffff&quot;&gt;1mA&lt;/font&gt;" style="text;html=1;align=center;verticalAlign=middle;resizable=0;points=[];autosize=1;strokeColor=none;fillColor=none;rounded=0;" vertex="1" parent="1">
          <mxGeometry x="586" y="604" width="43" height="26" as="geometry" />
        </mxCell>
        <mxCell id="Lr5nhhllC1a0luXDhCsq-5" value="&lt;font color=&quot;#ffffff&quot;&gt;350µA&lt;/font&gt;" style="text;html=1;align=center;verticalAlign=middle;resizable=0;points=[];autosize=1;strokeColor=none;fillColor=none;rounded=0;" vertex="1" parent="1">
          <mxGeometry x="581" y="684" width="53" height="26" as="geometry" />
        </mxCell>
        <mxCell id="Lr5nhhllC1a0luXDhCsq-7" value="&lt;font color=&quot;#ffffff&quot;&gt;420µA&lt;/font&gt;" style="text;html=1;align=center;verticalAlign=middle;resizable=0;points=[];autosize=1;strokeColor=none;fillColor=none;rounded=0;" vertex="1" parent="1">
          <mxGeometry x="582.5" y="446" width="53" height="26" as="geometry" />
        </mxCell>
        <mxCell id="Lr5nhhllC1a0luXDhCsq-8" value="&lt;font color=&quot;#ffffff&quot;&gt;23mA&lt;/font&gt;" style="text;html=1;align=center;verticalAlign=middle;resizable=0;points=[];autosize=1;strokeColor=none;fillColor=none;rounded=0;" vertex="1" parent="1">
          <mxGeometry x="581" y="375" width="49" height="26" as="geometry" />
        </mxCell>
        <mxCell id="Lr5nhhllC1a0luXDhCsq-11" style="edgeStyle=orthogonalEdgeStyle;orthogonalLoop=1;jettySize=auto;html=1;exitX=1;exitY=0.5;exitDx=0;exitDy=0;strokeColor=#FFFFFF;endArrow=none;endFill=0;" edge="1" parent="1" source="Lr5nhhllC1a0luXDhCsq-10">
          <mxGeometry relative="1" as="geometry">
            <mxPoint x="570.3333333333333" y="431.1428571428571" as="targetPoint" />
          </mxGeometry>
        </mxCell>
        <mxCell id="Lr5nhhllC1a0luXDhCsq-10" value="Pull Resistors" style="rounded=0;whiteSpace=wrap;html=1;labelBackgroundColor=none;fillColor=#000000;strokeColor=#FFFFFF;fontColor=#FFFFFF;glass=0;" vertex="1" parent="1">
          <mxGeometry x="385" y="401" width="120" height="60" as="geometry" />
        </mxCell>
        <mxCell id="Lr5nhhllC1a0luXDhCsq-12" value="&lt;font color=&quot;#ffffff&quot;&gt;1.9mA&lt;/font&gt;" style="text;html=1;align=center;verticalAlign=middle;resizable=0;points=[];autosize=1;strokeColor=none;fillColor=none;rounded=0;" vertex="1" parent="1">
          <mxGeometry x="507" y="405" width="53" height="26" as="geometry" />
        </mxCell>
        <mxCell id="Lr5nhhllC1a0luXDhCsq-14" value="&lt;font color=&quot;#ffffff&quot;&gt;526.7mA&lt;/font&gt;" style="text;html=1;align=center;verticalAlign=middle;resizable=0;points=[];autosize=1;strokeColor=none;fillColor=none;rounded=0;" vertex="1" parent="1">
          <mxGeometry x="332" y="524" width="66" height="26" as="geometry" />
        </mxCell>
      </root>
    </mxGraphModel>
  </diagram>
  <diagram name="Bitaxe 204pd" id="-G-v-lOWXE9A3e8md-Hp">
    <mxGraphModel dx="1434" dy="754" grid="0" gridSize="10" guides="1" tooltips="1" connect="1" arrows="1" fold="1" page="1" pageScale="1" pageWidth="850" pageHeight="1100" background="#000000" math="0" shadow="0">
      <root>
        <mxCell id="4ogvPRteZJmhOk5aQbd--0" />
        <mxCell id="4ogvPRteZJmhOk5aQbd--1" parent="4ogvPRteZJmhOk5aQbd--0" />
        <mxCell id="4ogvPRteZJmhOk5aQbd--2" style="edgeStyle=orthogonalEdgeStyle;rounded=0;orthogonalLoop=1;jettySize=auto;html=1;exitX=1;exitY=0.5;exitDx=0;exitDy=0;endArrow=none;endFill=0;entryX=0;entryY=0.5;entryDx=0;entryDy=0;entryPerimeter=0;labelBackgroundColor=none;strokeColor=#FFFFFF;fontColor=default;fillColor=#f5f5f5;" edge="1" parent="4ogvPRteZJmhOk5aQbd--1" source="4ogvPRteZJmhOk5aQbd--3" target="4ogvPRteZJmhOk5aQbd--4">
          <mxGeometry relative="1" as="geometry">
            <mxPoint x="205" y="151" as="targetPoint" />
          </mxGeometry>
        </mxCell>
        <mxCell id="4ogvPRteZJmhOk5aQbd--3" value="VIN&amp;nbsp;&amp;nbsp;&lt;br&gt;J1 (5V Barrel Jack)" style="rounded=0;whiteSpace=wrap;html=1;labelBackgroundColor=none;fillColor=#000000;strokeColor=#FFFFFF;fontColor=#FFFFFF;glass=0;" vertex="1" parent="4ogvPRteZJmhOk5aQbd--1">
          <mxGeometry x="25" y="121" width="120" height="60" as="geometry" />
        </mxCell>
        <mxCell id="4ogvPRteZJmhOk5aQbd--4" value="" style="pointerEvents=1;verticalLabelPosition=bottom;shadow=0;dashed=0;align=center;html=1;verticalAlign=top;shape=mxgraph.electrical.resistors.resistor_2;rounded=0;labelBackgroundColor=none;fillColor=#f5f5f5;strokeColor=#FFFFFF;fontColor=#333333;" vertex="1" parent="4ogvPRteZJmhOk5aQbd--1">
          <mxGeometry x="185" y="141" width="100" height="20" as="geometry" />
        </mxCell>
        <mxCell id="4ogvPRteZJmhOk5aQbd--5" value="" style="endArrow=none;dashed=1;html=1;dashPattern=1 3;strokeWidth=2;rounded=0;labelBackgroundColor=none;strokeColor=#FFFFFF;fontColor=default;fillColor=#f5f5f5;" edge="1" parent="4ogvPRteZJmhOk5aQbd--1">
          <mxGeometry width="50" height="50" relative="1" as="geometry">
            <mxPoint x="185" y="181" as="sourcePoint" />
            <mxPoint x="185" y="121" as="targetPoint" />
          </mxGeometry>
        </mxCell>
        <mxCell id="4ogvPRteZJmhOk5aQbd--6" value="" style="endArrow=none;dashed=1;html=1;dashPattern=1 3;strokeWidth=2;rounded=0;labelBackgroundColor=none;strokeColor=#FFFFFF;fontColor=default;fillColor=#f5f5f5;" edge="1" parent="4ogvPRteZJmhOk5aQbd--1">
          <mxGeometry width="50" height="50" relative="1" as="geometry">
            <mxPoint x="285" y="181" as="sourcePoint" />
            <mxPoint x="285" y="121" as="targetPoint" />
          </mxGeometry>
        </mxCell>
        <mxCell id="4ogvPRteZJmhOk5aQbd--7" value="" style="endArrow=none;dashed=1;html=1;dashPattern=1 3;strokeWidth=2;rounded=0;labelBackgroundColor=none;strokeColor=#FFFFFF;fontColor=default;fillColor=#f5f5f5;" edge="1" parent="4ogvPRteZJmhOk5aQbd--1">
          <mxGeometry width="50" height="50" relative="1" as="geometry">
            <mxPoint x="185" y="121" as="sourcePoint" />
            <mxPoint x="285" y="121" as="targetPoint" />
          </mxGeometry>
        </mxCell>
        <mxCell id="4ogvPRteZJmhOk5aQbd--8" value="" style="endArrow=none;html=1;rounded=0;entryX=0.97;entryY=0.462;entryDx=0;entryDy=0;entryPerimeter=0;labelBackgroundColor=none;strokeColor=#FFFFFF;fontColor=default;fillColor=#f5f5f5;" edge="1" parent="4ogvPRteZJmhOk5aQbd--1" target="4ogvPRteZJmhOk5aQbd--4">
          <mxGeometry width="50" height="50" relative="1" as="geometry">
            <mxPoint x="275" y="191" as="sourcePoint" />
            <mxPoint x="285" y="191" as="targetPoint" />
          </mxGeometry>
        </mxCell>
        <mxCell id="4ogvPRteZJmhOk5aQbd--9" value="" style="endArrow=none;html=1;rounded=0;entryX=0.028;entryY=0.404;entryDx=0;entryDy=0;entryPerimeter=0;labelBackgroundColor=none;strokeColor=#FFFFFF;fontColor=default;fillColor=#f5f5f5;" edge="1" parent="4ogvPRteZJmhOk5aQbd--1" target="4ogvPRteZJmhOk5aQbd--4">
          <mxGeometry width="50" height="50" relative="1" as="geometry">
            <mxPoint x="195" y="191" as="sourcePoint" />
            <mxPoint x="292" y="160" as="targetPoint" />
          </mxGeometry>
        </mxCell>
        <mxCell id="4ogvPRteZJmhOk5aQbd--10" value="Current Measurement" style="text;html=1;align=center;verticalAlign=middle;resizable=0;points=[];autosize=1;strokeColor=none;fillColor=none;rounded=0;labelBackgroundColor=none;fontColor=#FFFFFF;" vertex="1" parent="4ogvPRteZJmhOk5aQbd--1">
          <mxGeometry x="165" y="181" width="140" height="30" as="geometry" />
        </mxCell>
        <mxCell id="4ogvPRteZJmhOk5aQbd--11" value="" style="endArrow=none;dashed=1;html=1;dashPattern=1 3;strokeWidth=2;rounded=0;entryX=0.86;entryY=-0.026;entryDx=0;entryDy=0;entryPerimeter=0;exitX=0.143;exitY=-0.026;exitDx=0;exitDy=0;exitPerimeter=0;labelBackgroundColor=none;strokeColor=#FFFFFF;fontColor=default;fillColor=#f5f5f5;" edge="1" parent="4ogvPRteZJmhOk5aQbd--1" source="4ogvPRteZJmhOk5aQbd--10" target="4ogvPRteZJmhOk5aQbd--10">
          <mxGeometry width="50" height="50" relative="1" as="geometry">
            <mxPoint x="145" y="271" as="sourcePoint" />
            <mxPoint x="195" y="221" as="targetPoint" />
          </mxGeometry>
        </mxCell>
        <mxCell id="4ogvPRteZJmhOk5aQbd--12" style="edgeStyle=orthogonalEdgeStyle;rounded=0;orthogonalLoop=1;jettySize=auto;html=1;exitX=1;exitY=0.5;exitDx=0;exitDy=0;entryX=0;entryY=0.5;entryDx=0;entryDy=0;endArrow=none;endFill=0;labelBackgroundColor=none;strokeColor=#FFFFFF;fontColor=default;fillColor=#f5f5f5;" edge="1" parent="4ogvPRteZJmhOk5aQbd--1" source="4ogvPRteZJmhOk5aQbd--13" target="4ogvPRteZJmhOk5aQbd--18">
          <mxGeometry relative="1" as="geometry">
            <Array as="points">
              <mxPoint x="535" y="151" />
              <mxPoint x="535" y="151" />
            </Array>
          </mxGeometry>
        </mxCell>
        <mxCell id="4ogvPRteZJmhOk5aQbd--13" value="VDD Buck Converter U9 (~1.2V, TPS40305)" style="rounded=0;whiteSpace=wrap;html=1;fillColor=#6d8764;strokeColor=#FFFFFF;labelBackgroundColor=none;fontColor=#FFFFFF;" vertex="1" parent="4ogvPRteZJmhOk5aQbd--1">
          <mxGeometry x="365" y="121" width="130" height="60" as="geometry" />
        </mxCell>
        <mxCell id="4ogvPRteZJmhOk5aQbd--14" value="" style="endArrow=none;html=1;rounded=0;entryX=0;entryY=0.5;entryDx=0;entryDy=0;labelBackgroundColor=none;strokeColor=#FFFFFF;fontColor=default;fillColor=#f5f5f5;" edge="1" parent="4ogvPRteZJmhOk5aQbd--1" target="4ogvPRteZJmhOk5aQbd--13">
          <mxGeometry width="50" height="50" relative="1" as="geometry">
            <mxPoint x="285" y="151" as="sourcePoint" />
            <mxPoint x="405" y="241" as="targetPoint" />
          </mxGeometry>
        </mxCell>
        <mxCell id="4ogvPRteZJmhOk5aQbd--15" value="" style="endArrow=none;html=1;rounded=0;labelBackgroundColor=none;strokeColor=#FFFFFF;fontColor=default;fillColor=#f5f5f5;" edge="1" parent="4ogvPRteZJmhOk5aQbd--1">
          <mxGeometry width="50" height="50" relative="1" as="geometry">
            <mxPoint x="335" y="131" as="sourcePoint" />
            <mxPoint x="335" y="151" as="targetPoint" />
            <Array as="points">
              <mxPoint x="335" y="141" />
            </Array>
          </mxGeometry>
        </mxCell>
        <mxCell id="4ogvPRteZJmhOk5aQbd--16" value="" style="endArrow=none;html=1;rounded=0;labelBackgroundColor=none;strokeColor=#FFFFFF;fontColor=default;fillColor=#f5f5f5;" edge="1" parent="4ogvPRteZJmhOk5aQbd--1">
          <mxGeometry width="50" height="50" relative="1" as="geometry">
            <mxPoint x="345" y="131" as="sourcePoint" />
            <mxPoint x="325" y="131" as="targetPoint" />
          </mxGeometry>
        </mxCell>
        <mxCell id="4ogvPRteZJmhOk5aQbd--17" value="5V" style="text;html=1;align=center;verticalAlign=middle;resizable=0;points=[];autosize=1;strokeColor=none;fillColor=none;rounded=0;labelBackgroundColor=none;fontColor=#FFFFFF;" vertex="1" parent="4ogvPRteZJmhOk5aQbd--1">
          <mxGeometry x="315" y="111" width="40" height="30" as="geometry" />
        </mxCell>
        <mxCell id="4ogvPRteZJmhOk5aQbd--18" value="Bitcoin ASIC&lt;br&gt;U14 (BM1366)" style="rounded=0;whiteSpace=wrap;html=1;labelBackgroundColor=none;fillColor=#000000;strokeColor=#FFFFFF;fontColor=#FFFFFF;glass=0;" vertex="1" parent="4ogvPRteZJmhOk5aQbd--1">
          <mxGeometry x="585" y="121" width="120" height="60" as="geometry" />
        </mxCell>
        <mxCell id="4ogvPRteZJmhOk5aQbd--19" value="USB C Receptacle&amp;nbsp;&amp;nbsp;&lt;br&gt;J8" style="rounded=0;whiteSpace=wrap;html=1;labelBackgroundColor=none;fillColor=#000000;strokeColor=#FFFFFF;fontColor=#FFFFFF;glass=0;" vertex="1" parent="4ogvPRteZJmhOk5aQbd--1">
          <mxGeometry x="25" y="216" width="120" height="60" as="geometry" />
        </mxCell>
        <mxCell id="4ogvPRteZJmhOk5aQbd--20" style="edgeStyle=orthogonalEdgeStyle;rounded=0;orthogonalLoop=1;jettySize=auto;html=1;exitX=1;exitY=0.5;exitDx=0;exitDy=0;exitPerimeter=0;endArrow=none;endFill=0;labelBackgroundColor=none;strokeColor=#FFFFFF;fontColor=default;fillColor=#f5f5f5;" edge="1" parent="4ogvPRteZJmhOk5aQbd--1" source="4ogvPRteZJmhOk5aQbd--21">
          <mxGeometry relative="1" as="geometry">
            <mxPoint x="315" y="241" as="targetPoint" />
            <Array as="points">
              <mxPoint x="315" y="246" />
            </Array>
          </mxGeometry>
        </mxCell>
        <mxCell id="4ogvPRteZJmhOk5aQbd--21" value="" style="pointerEvents=1;fillColor=#f5f5f5;verticalLabelPosition=bottom;shadow=0;dashed=0;align=center;html=1;verticalAlign=top;shape=mxgraph.electrical.diodes.schottky_diode;rounded=0;labelBackgroundColor=none;strokeColor=#FFFFFF;fontColor=#333333;" vertex="1" parent="4ogvPRteZJmhOk5aQbd--1">
          <mxGeometry x="210" y="231" width="50" height="30" as="geometry" />
        </mxCell>
        <mxCell id="4ogvPRteZJmhOk5aQbd--22" style="edgeStyle=orthogonalEdgeStyle;rounded=0;orthogonalLoop=1;jettySize=auto;html=1;exitX=1;exitY=0.5;exitDx=0;exitDy=0;entryX=0;entryY=0.5;entryDx=0;entryDy=0;entryPerimeter=0;endArrow=none;endFill=0;labelBackgroundColor=none;strokeColor=#FFFFFF;fontColor=default;fillColor=#f5f5f5;" edge="1" parent="4ogvPRteZJmhOk5aQbd--1" source="4ogvPRteZJmhOk5aQbd--19" target="4ogvPRteZJmhOk5aQbd--21">
          <mxGeometry relative="1" as="geometry" />
        </mxCell>
        <mxCell id="4ogvPRteZJmhOk5aQbd--23" value="" style="endArrow=none;html=1;rounded=0;labelBackgroundColor=none;strokeColor=#FFFFFF;fontColor=default;fillColor=#f5f5f5;" edge="1" parent="4ogvPRteZJmhOk5aQbd--1">
          <mxGeometry width="50" height="50" relative="1" as="geometry">
            <mxPoint x="315" y="243.5" as="sourcePoint" />
            <mxPoint x="315" y="151" as="targetPoint" />
          </mxGeometry>
        </mxCell>
        <mxCell id="4ogvPRteZJmhOk5aQbd--24" value="" style="endArrow=none;html=1;rounded=0;labelBackgroundColor=none;strokeColor=#FFFFFF;fontColor=default;fillColor=#f5f5f5;" edge="1" parent="4ogvPRteZJmhOk5aQbd--1">
          <mxGeometry width="50" height="50" relative="1" as="geometry">
            <mxPoint x="555" y="131" as="sourcePoint" />
            <mxPoint x="535" y="131" as="targetPoint" />
          </mxGeometry>
        </mxCell>
        <mxCell id="4ogvPRteZJmhOk5aQbd--25" value="VDD" style="text;html=1;align=center;verticalAlign=middle;resizable=0;points=[];autosize=1;strokeColor=none;fillColor=none;rounded=0;labelBackgroundColor=none;fontColor=#FFFFFF;" vertex="1" parent="4ogvPRteZJmhOk5aQbd--1">
          <mxGeometry x="520" y="111" width="50" height="30" as="geometry" />
        </mxCell>
        <mxCell id="4ogvPRteZJmhOk5aQbd--26" value="" style="endArrow=none;html=1;rounded=0;labelBackgroundColor=none;strokeColor=#FFFFFF;fontColor=default;fillColor=#f5f5f5;" edge="1" parent="4ogvPRteZJmhOk5aQbd--1">
          <mxGeometry width="50" height="50" relative="1" as="geometry">
            <mxPoint x="545" y="131" as="sourcePoint" />
            <mxPoint x="545" y="151" as="targetPoint" />
          </mxGeometry>
        </mxCell>
        <mxCell id="4ogvPRteZJmhOk5aQbd--27" style="edgeStyle=orthogonalEdgeStyle;rounded=0;orthogonalLoop=1;jettySize=auto;html=1;exitX=0;exitY=0.5;exitDx=0;exitDy=0;endArrow=none;endFill=0;labelBackgroundColor=none;strokeColor=#FFFFFF;fontColor=default;fillColor=#f5f5f5;" edge="1" parent="4ogvPRteZJmhOk5aQbd--1" source="4ogvPRteZJmhOk5aQbd--28">
          <mxGeometry relative="1" as="geometry">
            <mxPoint x="355" y="151" as="targetPoint" />
            <Array as="points">
              <mxPoint x="345" y="516" />
              <mxPoint x="345" y="151" />
            </Array>
          </mxGeometry>
        </mxCell>
        <mxCell id="4ogvPRteZJmhOk5aQbd--28" value="3V3 Regulator&lt;br&gt;U11 (RT9080-33GJ5)" style="rounded=0;whiteSpace=wrap;html=1;fillColor=#6d8764;strokeColor=#FFFFFF;labelBackgroundColor=none;fontColor=#ffffff;" vertex="1" parent="4ogvPRteZJmhOk5aQbd--1">
          <mxGeometry x="365" y="486" width="130" height="60" as="geometry" />
        </mxCell>
        <mxCell id="4ogvPRteZJmhOk5aQbd--29" value="Microcontroller&lt;br&gt;U12 (ESP32-S3)" style="rounded=0;whiteSpace=wrap;html=1;labelBackgroundColor=none;fillColor=#000000;strokeColor=#FFFFFF;fontColor=#FFFFFF;glass=0;" vertex="1" parent="4ogvPRteZJmhOk5aQbd--1">
          <mxGeometry x="585" y="486" width="120" height="60" as="geometry" />
        </mxCell>
        <mxCell id="4ogvPRteZJmhOk5aQbd--30" style="edgeStyle=orthogonalEdgeStyle;rounded=0;orthogonalLoop=1;jettySize=auto;html=1;exitX=1;exitY=0.5;exitDx=0;exitDy=0;entryX=0;entryY=0.5;entryDx=0;entryDy=0;endArrow=none;endFill=0;labelBackgroundColor=none;strokeColor=#FFFFFF;fontColor=default;fillColor=#f5f5f5;" edge="1" parent="4ogvPRteZJmhOk5aQbd--1" source="4ogvPRteZJmhOk5aQbd--28" target="4ogvPRteZJmhOk5aQbd--29">
          <mxGeometry relative="1" as="geometry" />
        </mxCell>
        <mxCell id="4ogvPRteZJmhOk5aQbd--31" value="" style="endArrow=none;html=1;rounded=0;labelBackgroundColor=none;strokeColor=#FFFFFF;fontColor=default;fillColor=#f5f5f5;" edge="1" parent="4ogvPRteZJmhOk5aQbd--1">
          <mxGeometry width="50" height="50" relative="1" as="geometry">
            <mxPoint x="533" y="496" as="sourcePoint" />
            <mxPoint x="513" y="496" as="targetPoint" />
          </mxGeometry>
        </mxCell>
        <mxCell id="4ogvPRteZJmhOk5aQbd--32" value="3V3" style="text;html=1;align=center;verticalAlign=middle;resizable=0;points=[];autosize=1;strokeColor=none;fillColor=none;rounded=0;labelBackgroundColor=none;fontColor=#FFFFFF;" vertex="1" parent="4ogvPRteZJmhOk5aQbd--1">
          <mxGeometry x="503" y="476" width="40" height="30" as="geometry" />
        </mxCell>
        <mxCell id="4ogvPRteZJmhOk5aQbd--33" value="" style="endArrow=none;html=1;rounded=0;labelBackgroundColor=none;strokeColor=#FFFFFF;fontColor=default;fillColor=#f5f5f5;" edge="1" parent="4ogvPRteZJmhOk5aQbd--1">
          <mxGeometry width="50" height="50" relative="1" as="geometry">
            <mxPoint x="523" y="496" as="sourcePoint" />
            <mxPoint x="523" y="516" as="targetPoint" />
          </mxGeometry>
        </mxCell>
        <mxCell id="4ogvPRteZJmhOk5aQbd--34" value="1V8 Regulator&lt;br&gt;U5 (MCP1824T-1802E)" style="rounded=0;whiteSpace=wrap;html=1;fillColor=#6d8764;strokeColor=#FFFFFF;labelBackgroundColor=none;fontColor=#ffffff;" vertex="1" parent="4ogvPRteZJmhOk5aQbd--1">
          <mxGeometry x="365" y="281" width="130" height="60" as="geometry" />
        </mxCell>
        <mxCell id="4ogvPRteZJmhOk5aQbd--35" style="edgeStyle=orthogonalEdgeStyle;rounded=0;orthogonalLoop=1;jettySize=auto;html=1;exitX=1;exitY=0.5;exitDx=0;exitDy=0;entryX=0.25;entryY=1;entryDx=0;entryDy=0;endArrow=none;endFill=0;labelBackgroundColor=none;strokeColor=#FFFFFF;fontColor=default;fillColor=#f5f5f5;" edge="1" parent="4ogvPRteZJmhOk5aQbd--1" source="4ogvPRteZJmhOk5aQbd--36" target="4ogvPRteZJmhOk5aQbd--18">
          <mxGeometry relative="1" as="geometry" />
        </mxCell>
        <mxCell id="4ogvPRteZJmhOk5aQbd--36" value="0V8 Regulator&lt;br&gt;U6 (MCP1824T-0802E)" style="rounded=0;whiteSpace=wrap;html=1;fillColor=#6d8764;strokeColor=#FFFFFF;labelBackgroundColor=none;fontColor=#ffffff;" vertex="1" parent="4ogvPRteZJmhOk5aQbd--1">
          <mxGeometry x="365" y="201" width="130" height="60" as="geometry" />
        </mxCell>
        <mxCell id="4ogvPRteZJmhOk5aQbd--37" value="" style="endArrow=none;html=1;rounded=0;labelBackgroundColor=none;strokeColor=#FFFFFF;fontColor=default;fillColor=#f5f5f5;" edge="1" parent="4ogvPRteZJmhOk5aQbd--1">
          <mxGeometry width="50" height="50" relative="1" as="geometry">
            <mxPoint x="555" y="211" as="sourcePoint" />
            <mxPoint x="535" y="211" as="targetPoint" />
          </mxGeometry>
        </mxCell>
        <mxCell id="4ogvPRteZJmhOk5aQbd--38" value="" style="endArrow=none;html=1;rounded=0;labelBackgroundColor=none;strokeColor=#FFFFFF;fontColor=default;fillColor=#f5f5f5;" edge="1" parent="4ogvPRteZJmhOk5aQbd--1">
          <mxGeometry width="50" height="50" relative="1" as="geometry">
            <mxPoint x="545" y="211" as="sourcePoint" />
            <mxPoint x="545" y="231" as="targetPoint" />
          </mxGeometry>
        </mxCell>
        <mxCell id="4ogvPRteZJmhOk5aQbd--39" value="0V8" style="text;html=1;align=center;verticalAlign=middle;resizable=0;points=[];autosize=1;strokeColor=none;fillColor=none;rounded=0;labelBackgroundColor=none;fontColor=#FFFFFF;" vertex="1" parent="4ogvPRteZJmhOk5aQbd--1">
          <mxGeometry x="525" y="191" width="40" height="30" as="geometry" />
        </mxCell>
        <mxCell id="4ogvPRteZJmhOk5aQbd--40" style="edgeStyle=orthogonalEdgeStyle;rounded=0;orthogonalLoop=1;jettySize=auto;html=1;endArrow=none;endFill=0;labelBackgroundColor=none;strokeColor=#FFFFFF;fontColor=default;fillColor=#f5f5f5;" edge="1" parent="4ogvPRteZJmhOk5aQbd--1">
          <mxGeometry relative="1" as="geometry">
            <mxPoint x="495" y="310" as="sourcePoint" />
            <mxPoint x="675" y="181" as="targetPoint" />
            <Array as="points">
              <mxPoint x="495" y="311" />
              <mxPoint x="675" y="311" />
            </Array>
          </mxGeometry>
        </mxCell>
        <mxCell id="4ogvPRteZJmhOk5aQbd--41" value="" style="endArrow=none;html=1;rounded=0;labelBackgroundColor=none;strokeColor=#FFFFFF;fontColor=default;fillColor=#f5f5f5;" edge="1" parent="4ogvPRteZJmhOk5aQbd--1">
          <mxGeometry width="50" height="50" relative="1" as="geometry">
            <mxPoint x="555" y="291" as="sourcePoint" />
            <mxPoint x="535" y="291" as="targetPoint" />
          </mxGeometry>
        </mxCell>
        <mxCell id="4ogvPRteZJmhOk5aQbd--42" value="" style="endArrow=none;html=1;rounded=0;labelBackgroundColor=none;strokeColor=#FFFFFF;fontColor=default;fillColor=#f5f5f5;" edge="1" parent="4ogvPRteZJmhOk5aQbd--1">
          <mxGeometry width="50" height="50" relative="1" as="geometry">
            <mxPoint x="545" y="291" as="sourcePoint" />
            <mxPoint x="545" y="311" as="targetPoint" />
            <Array as="points">
              <mxPoint x="545" y="311" />
            </Array>
          </mxGeometry>
        </mxCell>
        <mxCell id="4ogvPRteZJmhOk5aQbd--43" value="1V8" style="text;html=1;align=center;verticalAlign=middle;resizable=0;points=[];autosize=1;strokeColor=none;fillColor=none;rounded=0;labelBackgroundColor=none;fontColor=#FFFFFF;" vertex="1" parent="4ogvPRteZJmhOk5aQbd--1">
          <mxGeometry x="525" y="271" width="40" height="30" as="geometry" />
        </mxCell>
        <mxCell id="4ogvPRteZJmhOk5aQbd--44" value="Fan&lt;br&gt;J4 (Off-board)" style="rounded=0;whiteSpace=wrap;html=1;labelBackgroundColor=none;fillColor=#000000;strokeColor=#FFFFFF;fontColor=#FFFFFF;glass=0;" vertex="1" parent="4ogvPRteZJmhOk5aQbd--1">
          <mxGeometry x="585" y="726" width="120" height="60" as="geometry" />
        </mxCell>
        <mxCell id="4ogvPRteZJmhOk5aQbd--45" value="" style="endArrow=none;html=1;rounded=0;exitX=0;exitY=0.5;exitDx=0;exitDy=0;labelBackgroundColor=none;strokeColor=#FFFFFF;fontColor=default;fillColor=#f5f5f5;" edge="1" parent="4ogvPRteZJmhOk5aQbd--1" source="4ogvPRteZJmhOk5aQbd--44">
          <mxGeometry width="50" height="50" relative="1" as="geometry">
            <mxPoint x="605" y="536" as="sourcePoint" />
            <mxPoint x="345" y="516" as="targetPoint" />
            <Array as="points">
              <mxPoint x="345" y="756" />
            </Array>
          </mxGeometry>
        </mxCell>
        <mxCell id="4ogvPRteZJmhOk5aQbd--46" style="edgeStyle=orthogonalEdgeStyle;rounded=0;orthogonalLoop=1;jettySize=auto;html=1;exitX=0;exitY=0.5;exitDx=0;exitDy=0;endArrow=none;endFill=0;labelBackgroundColor=none;strokeColor=#FFFFFF;fontColor=default;fillColor=#f5f5f5;" edge="1" parent="4ogvPRteZJmhOk5aQbd--1">
          <mxGeometry relative="1" as="geometry">
            <mxPoint x="564.9999999999998" y="516" as="targetPoint" />
            <mxPoint x="604.9999999999998" y="596" as="sourcePoint" />
            <Array as="points">
              <mxPoint x="566" y="596" />
              <mxPoint x="566" y="516" />
            </Array>
          </mxGeometry>
        </mxCell>
        <mxCell id="4ogvPRteZJmhOk5aQbd--47" value="Fan Control &lt;br&gt;U7 (EMC2101)" style="rounded=0;whiteSpace=wrap;html=1;labelBackgroundColor=none;fillColor=#000000;strokeColor=#FFFFFF;fontColor=#FFFFFF;glass=0;" vertex="1" parent="4ogvPRteZJmhOk5aQbd--1">
          <mxGeometry x="585" y="566" width="120" height="60" as="geometry" />
        </mxCell>
        <mxCell id="4ogvPRteZJmhOk5aQbd--48" style="edgeStyle=orthogonalEdgeStyle;rounded=0;orthogonalLoop=1;jettySize=auto;html=1;exitX=0;exitY=0.75;exitDx=0;exitDy=0;endArrow=none;endFill=0;labelBackgroundColor=none;strokeColor=#FFFFFF;fontColor=default;fillColor=#f5f5f5;" edge="1" parent="4ogvPRteZJmhOk5aQbd--1" source="4ogvPRteZJmhOk5aQbd--49">
          <mxGeometry relative="1" as="geometry">
            <mxPoint x="675" y="311" as="targetPoint" />
          </mxGeometry>
        </mxCell>
        <mxCell id="4ogvPRteZJmhOk5aQbd--49" value="25 MHz Oscillator&lt;br&gt;U1" style="rounded=0;whiteSpace=wrap;html=1;labelBackgroundColor=none;fillColor=#000000;strokeColor=#FFFFFF;fontColor=#FFFFFF;glass=0;" vertex="1" parent="4ogvPRteZJmhOk5aQbd--1">
          <mxGeometry x="705" y="271" width="120" height="60" as="geometry" />
        </mxCell>
        <mxCell id="4ogvPRteZJmhOk5aQbd--50" style="edgeStyle=orthogonalEdgeStyle;orthogonalLoop=1;jettySize=auto;html=1;exitX=0;exitY=0.5;exitDx=0;exitDy=0;strokeColor=#FFFFFF;fontColor=#FFFFFF;rounded=0;curved=0;endArrow=none;endFill=0;" edge="1" parent="4ogvPRteZJmhOk5aQbd--1" source="4ogvPRteZJmhOk5aQbd--51">
          <mxGeometry relative="1" as="geometry">
            <mxPoint x="566" y="596.2" as="targetPoint" />
            <Array as="points">
              <mxPoint x="566" y="676" />
            </Array>
          </mxGeometry>
        </mxCell>
        <mxCell id="4ogvPRteZJmhOk5aQbd--51" value="VDD Control&lt;br&gt;U10 (DS4432U)" style="rounded=0;whiteSpace=wrap;html=1;labelBackgroundColor=none;fillColor=#000000;strokeColor=#FFFFFF;fontColor=#FFFFFF;glass=0;" vertex="1" parent="4ogvPRteZJmhOk5aQbd--1">
          <mxGeometry x="585" y="646" width="120" height="60" as="geometry" />
        </mxCell>
        <mxCell id="4ogvPRteZJmhOk5aQbd--52" value="" style="rounded=0;whiteSpace=wrap;html=1;fillColor=#6d8764;strokeColor=#3A5431;labelBackgroundColor=none;fontColor=#ffffff;" vertex="1" parent="4ogvPRteZJmhOk5aQbd--1">
          <mxGeometry x="25" y="481" width="20" height="20" as="geometry" />
        </mxCell>
        <mxCell id="4ogvPRteZJmhOk5aQbd--53" value="Power Conversion Devices" style="text;html=1;align=center;verticalAlign=middle;resizable=0;points=[];autosize=1;strokeColor=none;fillColor=none;rounded=0;labelBackgroundColor=none;fontColor=#FFFFFF;" vertex="1" parent="4ogvPRteZJmhOk5aQbd--1">
          <mxGeometry x="45" y="476" width="170" height="30" as="geometry" />
        </mxCell>
        <mxCell id="4ogvPRteZJmhOk5aQbd--54" style="edgeStyle=orthogonalEdgeStyle;rounded=0;orthogonalLoop=1;jettySize=auto;html=1;exitX=0;exitY=0.5;exitDx=0;exitDy=0;strokeColor=#FFFFFF;endArrow=none;endFill=0;" edge="1" parent="4ogvPRteZJmhOk5aQbd--1">
          <mxGeometry relative="1" as="geometry">
            <mxPoint x="567" y="516" as="targetPoint" />
            <mxPoint x="587" y="439" as="sourcePoint" />
          </mxGeometry>
        </mxCell>
        <mxCell id="4ogvPRteZJmhOk5aQbd--55" value="Current Measurement&lt;br&gt;U8 (INA260)" style="rounded=0;whiteSpace=wrap;html=1;labelBackgroundColor=none;fillColor=#000000;strokeColor=#FFFFFF;fontColor=#FFFFFF;glass=0;" vertex="1" parent="4ogvPRteZJmhOk5aQbd--1">
          <mxGeometry x="585" y="408" width="120" height="60" as="geometry" />
        </mxCell>
        <mxCell id="4ogvPRteZJmhOk5aQbd--56" style="edgeStyle=orthogonalEdgeStyle;rounded=0;orthogonalLoop=1;jettySize=auto;html=1;exitX=0;exitY=0.5;exitDx=0;exitDy=0;strokeColor=#FFFFFF;endArrow=none;endFill=0;" edge="1" parent="4ogvPRteZJmhOk5aQbd--1" source="4ogvPRteZJmhOk5aQbd--57">
          <mxGeometry relative="1" as="geometry">
            <mxPoint x="566.7142857142858" y="439.28571428571433" as="targetPoint" />
          </mxGeometry>
        </mxCell>
        <mxCell id="4ogvPRteZJmhOk5aQbd--57" value="OLED Display&lt;br&gt;J9 &lt;br&gt;(SSD1306, Off-Board)" style="rounded=0;whiteSpace=wrap;html=1;labelBackgroundColor=none;fillColor=#000000;strokeColor=#FFFFFF;fontColor=#FFFFFF;glass=0;" vertex="1" parent="4ogvPRteZJmhOk5aQbd--1">
          <mxGeometry x="585" y="337" width="120" height="60" as="geometry" />
        </mxCell>
      </root>
    </mxGraphModel>
  </diagram>
</mxfile>
